<svg xmlns="http://www.w3.org/2000/svg" viewBox="0 0 500 500"><g id="freepik--background-simple--inject-353"><path d="M329.83,86.54s-74.5-26.49-147.63,15.69-110,125.9-141.73,193S27,430.49,82.85,461.6s93.79-14.75,172.11-17,99.38,9,164.37-35.28,76.74-148.73,25.47-226S329.83,86.54,329.83,86.54Z" style="fill:#144BC8"></path><path d="M329.83,86.54s-74.5-26.49-147.63,15.69-110,125.9-141.73,193S27,430.49,82.85,461.6s93.79-14.75,172.11-17,99.38,9,164.37-35.28,76.74-148.73,25.47-226S329.83,86.54,329.83,86.54Z" style="fill:#fff;opacity:0.7000000000000001"></path></g><g id="freepik--Plant--inject-353"><path d="M85.43,235.49s.52,65.56.52,82.87-.52,121-.52,121" style="fill:none;stroke:#263238;stroke-linecap:round;stroke-linejoin:round;stroke-width:3px"></path><polygon points="124.77 252.27 108.51 238.64 154.14 243.88 113.75 230.77 155.19 223.43 108.51 223.43 144.7 196.15 103.79 216.61 127.39 176.22 95.92 212.41 106.93 159.44 86.48 208.74 84.38 153.67 80.19 209.79 57.87 160.21 73.37 214.51 39.98 178.09 69.17 222.9 27.85 193.42 66.55 230.77 22.74 206.83 62.88 233.92 26.57 229.19 61.83 239.16 33.6 243.88 62.88 242.83 45.57 254.37 86.48 243.36 124.77 252.27" style="fill:#144BC8"></polygon><path d="M69.69,301.58s-1.57,13.63-.52,18.88a95.69,95.69,0,0,1,1.57,18.35c0,6.82.53,35.8.53,40.52s-.53,44.82-.53,48.5v12.58" style="fill:none;stroke:#263238;stroke-linecap:round;stroke-linejoin:round;stroke-width:3px"></path><path d="M71.27,374.09s2.1-40,4.19-45.24,3.68-3.67,4.2-10,.52-8.91,1.57-11a43.07,43.07,0,0,0,2.1-5.77l1-4.2" style="fill:none;stroke:#263238;stroke-linecap:round;stroke-linejoin:round;stroke-width:3px"></path><polygon points="108.51 315.21 92.25 301.57 137.88 306.82 97.49 293.71 138.93 286.37 92.25 286.37 128.44 259.09 87.53 279.55 111.13 239.16 79.66 275.35 90.67 222.38 70.22 271.68 68.12 216.61 63.93 272.73 47.67 221.85 57.11 277.45 28.26 236.01 52.91 285.84 15.07 261.12 50.29 293.71 11.24 277.72 46.62 296.86 9.97 293.69 45.57 302.1 20.82 307.74 46.62 305.77 29.31 317.31 70.22 306.3 108.51 315.21" style="fill:#144BC8"></polygon><path d="M55.33,425.55,44.1,444.27a12.35,12.35,0,0,0-1.34,9.55l5,18.59a6.19,6.19,0,0,0,6,4.59h51.14a6.19,6.19,0,0,0,6-4.59l5-18.59a12.3,12.3,0,0,0-1.34-9.55l-11.22-18.72a4.27,4.27,0,0,0-3.64-2.06H59A4.24,4.24,0,0,0,55.33,425.55Z" style="fill:#263238;stroke:#263238;stroke-linejoin:round"></path></g><g id="freepik--Shelf--inject-353"><rect x="141.07" y="133.79" width="7.98" height="11.07" style="fill:#fff;stroke:#263238;stroke-linecap:round;stroke-linejoin:round"></rect><rect x="143.38" y="125.55" width="3.6" height="8.24" style="fill:#144BC8;stroke:#263238;stroke-linecap:round;stroke-linejoin:round"></rect><rect x="129.49" y="133.79" width="7.98" height="11.07" style="fill:#fff;stroke:#263238;stroke-linecap:round;stroke-linejoin:round"></rect><rect x="131.8" y="125.55" width="3.6" height="8.24" style="fill:#144BC8;stroke:#263238;stroke-linecap:round;stroke-linejoin:round"></rect><rect x="153.55" y="133.79" width="7.98" height="11.07" style="fill:#263238;stroke:#263238;stroke-linecap:round;stroke-linejoin:round"></rect><rect x="155.87" y="125.55" width="3.6" height="8.24" style="fill:#144BC8;stroke:#263238;stroke-linecap:round;stroke-linejoin:round"></rect><rect x="178.4" y="133.79" width="7.98" height="11.07" style="fill:#fff;stroke:#263238;stroke-linecap:round;stroke-linejoin:round"></rect><rect x="180.72" y="125.55" width="3.6" height="8.24" style="fill:#144BC8;stroke:#263238;stroke-linecap:round;stroke-linejoin:round"></rect><rect x="166.82" y="133.79" width="7.98" height="11.07" style="fill:#fff;stroke:#263238;stroke-linecap:round;stroke-linejoin:round"></rect><rect x="169.14" y="125.55" width="3.6" height="8.24" style="fill:#144BC8;stroke:#263238;stroke-linecap:round;stroke-linejoin:round"></rect><rect x="190.88" y="133.79" width="7.98" height="11.07" style="fill:#fff;stroke:#263238;stroke-linecap:round;stroke-linejoin:round"></rect><rect x="193.2" y="125.55" width="3.6" height="8.24" style="fill:#144BC8;stroke:#263238;stroke-linecap:round;stroke-linejoin:round"></rect><rect x="215.73" y="133.79" width="7.98" height="11.07" style="fill:#fff;stroke:#263238;stroke-linecap:round;stroke-linejoin:round"></rect><rect x="218.05" y="125.55" width="3.6" height="8.24" style="fill:#144BC8;stroke:#263238;stroke-linecap:round;stroke-linejoin:round"></rect><rect x="204.15" y="133.79" width="7.98" height="11.07" style="fill:#263238;stroke:#263238;stroke-linecap:round;stroke-linejoin:round"></rect><rect x="206.47" y="125.55" width="3.6" height="8.24" style="fill:#144BC8;stroke:#263238;stroke-linecap:round;stroke-linejoin:round"></rect><rect x="228.22" y="133.79" width="7.98" height="11.07" style="fill:#fff;stroke:#263238;stroke-linecap:round;stroke-linejoin:round"></rect><rect x="230.53" y="125.55" width="3.6" height="8.24" style="fill:#144BC8;stroke:#263238;stroke-linecap:round;stroke-linejoin:round"></rect><rect x="253.07" y="133.79" width="7.98" height="11.07" style="fill:#263238;stroke:#263238;stroke-linecap:round;stroke-linejoin:round"></rect><rect x="255.38" y="125.55" width="3.6" height="8.24" style="fill:#144BC8;stroke:#263238;stroke-linecap:round;stroke-linejoin:round"></rect><rect x="241.49" y="133.79" width="7.98" height="11.07" style="fill:#fff;stroke:#263238;stroke-linecap:round;stroke-linejoin:round"></rect><rect x="243.8" y="125.55" width="3.6" height="8.24" style="fill:#144BC8;stroke:#263238;stroke-linecap:round;stroke-linejoin:round"></rect><rect x="265.55" y="133.79" width="7.98" height="11.07" style="fill:#fff;stroke:#263238;stroke-linecap:round;stroke-linejoin:round"></rect><rect x="267.87" y="125.55" width="3.6" height="8.24" style="fill:#144BC8;stroke:#263238;stroke-linecap:round;stroke-linejoin:round"></rect><rect x="290.4" y="133.79" width="7.98" height="11.07" style="fill:#fff;stroke:#263238;stroke-linecap:round;stroke-linejoin:round"></rect><rect x="292.72" y="125.55" width="3.6" height="8.24" style="fill:#144BC8;stroke:#263238;stroke-linecap:round;stroke-linejoin:round"></rect><rect x="278.82" y="133.79" width="7.98" height="11.07" style="fill:#fff;stroke:#263238;stroke-linecap:round;stroke-linejoin:round"></rect><rect x="281.14" y="125.55" width="3.6" height="8.24" style="fill:#263238;stroke:#263238;stroke-linecap:round;stroke-linejoin:round"></rect><rect x="302.88" y="133.79" width="7.98" height="11.07" style="fill:#fff;stroke:#263238;stroke-linecap:round;stroke-linejoin:round"></rect><rect x="305.2" y="125.55" width="3.6" height="8.24" style="fill:#263238;stroke:#263238;stroke-linecap:round;stroke-linejoin:round"></rect><rect x="327.73" y="133.79" width="7.98" height="11.07" style="fill:#fff;stroke:#263238;stroke-linecap:round;stroke-linejoin:round"></rect><rect x="330.05" y="125.55" width="3.6" height="8.24" style="fill:#144BC8;stroke:#263238;stroke-linecap:round;stroke-linejoin:round"></rect><rect x="316.15" y="133.79" width="7.98" height="11.07" style="fill:#fff;stroke:#263238;stroke-linecap:round;stroke-linejoin:round"></rect><rect x="318.47" y="125.55" width="3.6" height="8.24" style="fill:#263238;stroke:#263238;stroke-linecap:round;stroke-linejoin:round"></rect><rect x="340.22" y="133.79" width="7.98" height="11.07" style="fill:#fff;stroke:#263238;stroke-linecap:round;stroke-linejoin:round"></rect><rect x="342.53" y="125.55" width="3.6" height="8.24" style="fill:#263238;stroke:#263238;stroke-linecap:round;stroke-linejoin:round"></rect><rect x="365.07" y="133.79" width="7.98" height="11.07" style="fill:#fff;stroke:#263238;stroke-linecap:round;stroke-linejoin:round"></rect><rect x="367.38" y="125.55" width="3.6" height="8.24" style="fill:#144BC8;stroke:#263238;stroke-linecap:round;stroke-linejoin:round"></rect><rect x="353.49" y="133.79" width="7.98" height="11.07" style="fill:#fff;stroke:#263238;stroke-linecap:round;stroke-linejoin:round"></rect><rect x="355.8" y="125.55" width="3.6" height="8.24" style="fill:#144BC8;stroke:#263238;stroke-linecap:round;stroke-linejoin:round"></rect><rect x="377.55" y="133.79" width="7.98" height="11.07" style="fill:#263238;stroke:#263238;stroke-linecap:round;stroke-linejoin:round"></rect><rect x="379.87" y="125.55" width="3.6" height="8.24" style="fill:#144BC8;stroke:#263238;stroke-linecap:round;stroke-linejoin:round"></rect><rect x="116.41" y="143.61" width="280.47" height="4.65" style="fill:#fff;stroke:#263238;stroke-linecap:round;stroke-linejoin:round"></rect><rect x="141.07" y="102.45" width="7.98" height="11.07" style="fill:#fff;stroke:#263238;stroke-linecap:round;stroke-linejoin:round"></rect><rect x="143.38" y="94.22" width="3.6" height="8.24" style="fill:#263238;stroke:#263238;stroke-linecap:round;stroke-linejoin:round"></rect><rect x="129.49" y="102.45" width="7.98" height="11.07" style="fill:#fff;stroke:#263238;stroke-linecap:round;stroke-linejoin:round"></rect><rect x="131.8" y="94.22" width="3.6" height="8.24" style="fill:#144BC8;stroke:#263238;stroke-linecap:round;stroke-linejoin:round"></rect><rect x="153.55" y="102.45" width="7.98" height="11.07" style="fill:#263238;stroke:#263238;stroke-linecap:round;stroke-linejoin:round"></rect><rect x="155.87" y="94.22" width="3.6" height="8.24" style="fill:#144BC8;stroke:#263238;stroke-linecap:round;stroke-linejoin:round"></rect><rect x="178.4" y="102.45" width="7.98" height="11.07" style="fill:#fff;stroke:#263238;stroke-linecap:round;stroke-linejoin:round"></rect><rect x="180.72" y="94.22" width="3.6" height="8.24" style="fill:#263238;stroke:#263238;stroke-linecap:round;stroke-linejoin:round"></rect><rect x="166.82" y="102.45" width="7.98" height="11.07" style="fill:#fff;stroke:#263238;stroke-linecap:round;stroke-linejoin:round"></rect><rect x="169.14" y="94.22" width="3.6" height="8.24" style="fill:#144BC8;stroke:#263238;stroke-linecap:round;stroke-linejoin:round"></rect><rect x="190.88" y="102.45" width="7.98" height="11.07" style="fill:#fff;stroke:#263238;stroke-linecap:round;stroke-linejoin:round"></rect><rect x="193.2" y="94.22" width="3.6" height="8.24" style="fill:#144BC8;stroke:#263238;stroke-linecap:round;stroke-linejoin:round"></rect><rect x="215.73" y="102.45" width="7.98" height="11.07" style="fill:#fff;stroke:#263238;stroke-linecap:round;stroke-linejoin:round"></rect><rect x="218.05" y="94.22" width="3.6" height="8.24" style="fill:#144BC8;stroke:#263238;stroke-linecap:round;stroke-linejoin:round"></rect><rect x="204.15" y="102.45" width="7.98" height="11.07" style="fill:#263238;stroke:#263238;stroke-linecap:round;stroke-linejoin:round"></rect><rect x="206.47" y="94.22" width="3.6" height="8.24" style="fill:#144BC8;stroke:#263238;stroke-linecap:round;stroke-linejoin:round"></rect><rect x="228.22" y="102.45" width="7.98" height="11.07" style="fill:#fff;stroke:#263238;stroke-linecap:round;stroke-linejoin:round"></rect><rect x="230.53" y="94.22" width="3.6" height="8.24" style="fill:#144BC8;stroke:#263238;stroke-linecap:round;stroke-linejoin:round"></rect><rect x="253.07" y="102.45" width="7.98" height="11.07" style="fill:#fff;stroke:#263238;stroke-linecap:round;stroke-linejoin:round"></rect><rect x="255.38" y="94.22" width="3.6" height="8.24" style="fill:#144BC8;stroke:#263238;stroke-linecap:round;stroke-linejoin:round"></rect><rect x="241.49" y="102.45" width="7.98" height="11.07" style="fill:#263238;stroke:#263238;stroke-linecap:round;stroke-linejoin:round"></rect><rect x="243.8" y="94.22" width="3.6" height="8.24" style="fill:#144BC8;stroke:#263238;stroke-linecap:round;stroke-linejoin:round"></rect><rect x="265.55" y="102.45" width="7.98" height="11.07" style="fill:#fff;stroke:#263238;stroke-linecap:round;stroke-linejoin:round"></rect><rect x="267.87" y="94.22" width="3.6" height="8.24" style="fill:#144BC8;stroke:#263238;stroke-linecap:round;stroke-linejoin:round"></rect><rect x="290.4" y="102.45" width="7.98" height="11.07" style="fill:#fff;stroke:#263238;stroke-linecap:round;stroke-linejoin:round"></rect><rect x="292.72" y="94.22" width="3.6" height="8.24" style="fill:#144BC8;stroke:#263238;stroke-linecap:round;stroke-linejoin:round"></rect><rect x="278.82" y="102.45" width="7.98" height="11.07" style="fill:#263238;stroke:#263238;stroke-linecap:round;stroke-linejoin:round"></rect><rect x="281.14" y="94.22" width="3.6" height="8.24" style="fill:#144BC8;stroke:#263238;stroke-linecap:round;stroke-linejoin:round"></rect><rect x="302.88" y="102.45" width="7.98" height="11.07" style="fill:#fff;stroke:#263238;stroke-linecap:round;stroke-linejoin:round"></rect><rect x="305.2" y="94.22" width="3.6" height="8.24" style="fill:#144BC8;stroke:#263238;stroke-linecap:round;stroke-linejoin:round"></rect><rect x="327.73" y="102.45" width="7.98" height="11.07" style="fill:#fff;stroke:#263238;stroke-linecap:round;stroke-linejoin:round"></rect><rect x="330.05" y="94.22" width="3.6" height="8.24" style="fill:#144BC8;stroke:#263238;stroke-linecap:round;stroke-linejoin:round"></rect><rect x="316.15" y="102.45" width="7.98" height="11.07" style="fill:#263238;stroke:#263238;stroke-linecap:round;stroke-linejoin:round"></rect><rect x="318.47" y="94.22" width="3.6" height="8.24" style="fill:#144BC8;stroke:#263238;stroke-linecap:round;stroke-linejoin:round"></rect><rect x="340.22" y="102.45" width="7.98" height="11.07" style="fill:#fff;stroke:#263238;stroke-linecap:round;stroke-linejoin:round"></rect><rect x="342.53" y="94.22" width="3.6" height="8.24" style="fill:#144BC8;stroke:#263238;stroke-linecap:round;stroke-linejoin:round"></rect><rect x="365.07" y="102.45" width="7.98" height="11.07" style="fill:#fff;stroke:#263238;stroke-linecap:round;stroke-linejoin:round"></rect><rect x="367.38" y="94.22" width="3.6" height="8.24" style="fill:#263238;stroke:#263238;stroke-linecap:round;stroke-linejoin:round"></rect><rect x="353.49" y="102.45" width="7.98" height="11.07" style="fill:#fff;stroke:#263238;stroke-linecap:round;stroke-linejoin:round"></rect><rect x="355.8" y="94.22" width="3.6" height="8.24" style="fill:#144BC8;stroke:#263238;stroke-linecap:round;stroke-linejoin:round"></rect><rect x="377.55" y="102.45" width="7.98" height="11.07" style="fill:#fff;stroke:#263238;stroke-linecap:round;stroke-linejoin:round"></rect><rect x="379.87" y="94.22" width="3.6" height="8.24" style="fill:#144BC8;stroke:#263238;stroke-linecap:round;stroke-linejoin:round"></rect><rect x="116.41" y="112.27" width="280.47" height="4.65" style="fill:#fff;stroke:#263238;stroke-linecap:round;stroke-linejoin:round"></rect><path d="M334.67,56.24s1.85-3.49-1.85-8.83a93.56,93.56,0,0,0-8.21-10.06s7.8,2.87,10.06,5.34,4.31,5.54,4.11,4.92-3.29-6.36-6.57-12.93-6.37-12.94-6.37-12.94a98.41,98.41,0,0,0,9.24,10.47,46.28,46.28,0,0,1,8,10.68S340.83,31,340.83,25.64s1-14.37,1-14.37,3.69,9,4.52,15.6,1,14,1,14,.41-2.06,2.06-9a150.54,150.54,0,0,1,5.34-16.43s.41,7.81.2,15.61S351.51,48,351.51,48s3.08-3.5,5.54-6.78a51.26,51.26,0,0,0,3.5-5.14s-5.34,12.74-6,14.17-1.85,6.17-1.85,6.17Z" style="fill:#144BC8"></path><rect x="332.51" y="56.18" width="21.84" height="7.38" style="fill:#fff;stroke:#263238;stroke-linecap:round;stroke-linejoin:round"></rect><polygon points="351.71 81.52 335.15 81.52 326.87 63.58 359.99 63.58 351.71 81.52" style="fill:#fff;stroke:#263238;stroke-linecap:round;stroke-linejoin:round"></polygon><path d="M373.81,62s-3.42-4.35-3.42-7S373,56.21,373,56.21,367.45,46,367.91,41.77s4.66,7.3,4.66,7.3-1.4-23.6.93-22.82,5.28,23,5.28,24.37,2-9.78,3.57-6.52,1.55,11,1.55,11,2-11.8,3.57-7.76-1.86,14.74-1.86,14.74" style="fill:#144BC8"></path><rect x="370.6" y="65.53" width="18.9" height="15.68" style="fill:none;stroke:#263238;stroke-linecap:round;stroke-linejoin:round"></rect><path d="M389.65,71V62.06h-19.1V72.27a2.28,2.28,0,0,0,2.28,2.28H373a2.28,2.28,0,0,0,2.29-2.28V71h.12v1.3a2.29,2.29,0,0,0,2.29,2.28h.12a2.28,2.28,0,0,0,2.28-2.28V71h.13v1.3a2.28,2.28,0,0,0,2.28,2.28h.12a2.28,2.28,0,0,0,2.29-2.28V71H385v1.3a2.29,2.29,0,0,0,2.29,2.28h.12a2.28,2.28,0,0,0,2.28-2.28V71Z" style="fill:#fff;stroke:#263238;stroke-linecap:round;stroke-linejoin:round"></path><polygon points="181.29 56.49 173.16 81.28 190.2 81.28 189.04 56.49 181.29 56.49" style="fill:#fff;stroke:#263238;stroke-linecap:round;stroke-linejoin:round"></polygon><polygon points="214.69 33.65 174.03 33.65 185.46 81.28 226.12 81.28 214.69 33.65" style="fill:#fff;stroke:#263238;stroke-linecap:round;stroke-linejoin:round"></polygon><polygon points="209.94 41.39 182.5 41.39 190.21 73.53 217.65 73.53 209.94 41.39" style="fill:#fff;stroke:#263238;stroke-linecap:round;stroke-linejoin:round"></polygon><rect x="116.41" y="80.94" width="280.47" height="4.65" style="fill:#fff;stroke:#263238;stroke-linecap:round;stroke-linejoin:round"></rect></g><g id="freepik--Lamp--inject-353"><path d="M224.32,306.49a2.51,2.51,0,0,1-2.48-2.19L208.41,200.16a2.5,2.5,0,1,1,5-.62L226.8,303.67a2.51,2.51,0,0,1-2.17,2.8Z" style="fill:#263238"></path><path d="M211.54,204.61a1.5,1.5,0,0,1-.26-3l44.51-28.91a1.5,1.5,0,0,1,.51,3l-44.51,28.91Z" style="fill:#263238"></path><path d="M212.84,212.44a1.5,1.5,0,0,1-.25-3l44.5-28.91a1.5,1.5,0,0,1,.51,2.95l-44.5,28.92Z" style="fill:#263238"></path><polygon points="256.69 172.24 248.22 185.94 263.22 187.24 264.52 183.98 256.69 172.24" style="fill:#263238"></polygon><path d="M263.22,187.74h-.05l-15-1.3a.51.51,0,0,1-.4-.28.48.48,0,0,1,0-.48l8.48-13.7a.51.51,0,0,1,.42-.24.54.54,0,0,1,.42.22l7.83,11.74a.49.49,0,0,1,0,.47l-1.3,3.26A.5.5,0,0,1,263.22,187.74Zm-14.15-2.23,13.82,1.2L264,184l-7.25-10.87Z" style="fill:#263238"></path><path d="M292,208.13l-8.6-18.93c0-2.22-4.68-4-10.44-4s-10.44,1.79-10.44,4L254,208.13a3.85,3.85,0,0,0-1.18,2.59c0,4.3,9,7.78,20.22,7.78s20.22-3.48,20.22-7.78A3.85,3.85,0,0,0,292,208.13Z" style="fill:#263238"></path><path d="M273,219c-11.62,0-20.72-3.64-20.72-8.28a4.26,4.26,0,0,1,1.26-2.87l8.53-18.77c.13-2.51,4.79-4.39,10.93-4.39s10.79,1.88,10.93,4.39l8.53,18.77a4.26,4.26,0,0,1,1.26,2.87C293.72,215.36,284.62,219,273,219Zm0-33.31c-5.86,0-9.94,1.85-9.94,3.51a.52.52,0,0,1,0,.21l-8.6,18.92a.3.3,0,0,1-.09.13,3.39,3.39,0,0,0-1.05,2.26c0,3.95,9,7.28,19.72,7.28s19.72-3.33,19.72-7.28a3.39,3.39,0,0,0-1.05-2.26.3.3,0,0,1-.09-.13L283,189.41a.52.52,0,0,1,0-.21C282.94,187.54,278.85,185.69,273,185.69Z" style="fill:#263238"></path><polygon points="264.52 170.94 262.56 189.2 283.44 189.2 281.48 170.94 264.52 170.94" style="fill:#263238"></polygon><path d="M283.44,189.7H262.56a.5.5,0,0,1-.37-.17.47.47,0,0,1-.12-.38L264,170.88a.51.51,0,0,1,.5-.44h17a.51.51,0,0,1,.5.44l1.95,18.27a.47.47,0,0,1-.12.38A.5.5,0,0,1,283.44,189.7Zm-20.32-1h19.76L281,171.44H265Z" style="fill:#263238"></path><path d="M281.48,170.94c0,1.8-3.8,3.26-8.48,3.26s-8.48-1.46-8.48-3.26,3.8-3.26,8.48-3.26S281.48,169.14,281.48,170.94Z" style="fill:#636363"></path><path d="M273,174.7c-4.35,0-9-1.32-9-3.76s4.63-3.76,9-3.76,9,1.31,9,3.76S277.35,174.7,273,174.7Zm0-6.52c-4.7,0-8,1.45-8,2.76s3.28,2.76,8,2.76,8-1.46,8-2.76S277.7,168.18,273,168.18Z" style="fill:#263238"></path><path d="M227.24,295.77,219.3,310l4.08,2.92a6.79,6.79,0,0,0,3.94,1.26h0a6.8,6.8,0,0,0,5.3-2.55l1.31-1.63-4.18-13.38Z" style="fill:#263238"></path><path d="M227.32,314.66a7.23,7.23,0,0,1-4.23-1.36L219,310.39a.5.5,0,0,1-.15-.65l7.94-14.22a.5.5,0,0,1,.6-.23l2.51.84a.51.51,0,0,1,.32.32l4.18,13.38a.51.51,0,0,1-.09.46L233,311.93A7.26,7.26,0,0,1,227.32,314.66ZM220,309.83l3.72,2.66a6.28,6.28,0,0,0,8.56-1.19l1.14-1.42-4-12.88-1.88-.63Z" style="fill:#263238"></path><path d="M228.89,301.57a1.51,1.51,0,0,1-1.47-1.18l-9.13-41.74c-.18-.81-2.66-22.91-1.85-23.09s4.61,21.64,4.78,22.45l9.13,41.74a1.5,1.5,0,0,1-1.14,1.79Z" style="fill:#263238"></path><path d="M256,175.7a1.51,1.51,0,0,1-1.32-.79c-.11-.21-2.75-5.19-1.28-9.24a6.65,6.65,0,0,1,4-3.95,7,7,0,0,1,6,.05c3.35,1.71,4.46,6,4.5,6.19a1.5,1.5,0,0,1-2.91.73s-.83-3.17-3-4.25a4.1,4.1,0,0,0-3.49.06,3.74,3.74,0,0,0-2.3,2.19c-.84,2.31.51,5.69,1.1,6.8a1.5,1.5,0,0,1-.61,2A1.53,1.53,0,0,1,256,175.7Z" style="fill:#263238"></path></g><g id="freepik--Table--inject-353"><rect x="218.99" y="300.89" width="7.98" height="11.07" style="fill:#fff;stroke:#263238;stroke-linecap:round;stroke-linejoin:round"></rect><rect x="221.31" y="292.65" width="3.6" height="8.24" style="fill:#144BC8;stroke:#263238;stroke-linecap:round;stroke-linejoin:round"></rect><rect x="207.41" y="300.89" width="7.98" height="11.07" style="fill:#fff;stroke:#263238;stroke-linecap:round;stroke-linejoin:round"></rect><rect x="209.73" y="292.65" width="3.6" height="8.24" style="fill:#144BC8;stroke:#263238;stroke-linecap:round;stroke-linejoin:round"></rect><rect x="231.47" y="300.89" width="7.98" height="11.07" style="fill:#fff;stroke:#263238;stroke-linecap:round;stroke-linejoin:round"></rect><rect x="233.79" y="292.65" width="3.6" height="8.24" style="fill:#144BC8;stroke:#263238;stroke-linecap:round;stroke-linejoin:round"></rect><rect x="254.55" y="314.17" width="10" height="153.5" style="fill:#263238;stroke:#263238;stroke-linecap:round;stroke-linejoin:round"></rect><rect x="189.55" y="311.67" width="140" height="5" style="fill:#fff;stroke:#263238;stroke-linecap:round;stroke-linejoin:round"></rect><path d="M250.9,464.23,207.38,477h105l-43.52-12.77A31.9,31.9,0,0,0,250.9,464.23Z" style="fill:#fff;stroke:#263238;stroke-linecap:round;stroke-linejoin:round"></path></g><g id="freepik--Floor--inject-353"><line x1="23" y1="477" x2="472" y2="477" style="fill:none;stroke:#263238;stroke-linecap:round;stroke-linejoin:round"></line></g></svg>